:SAMPLES-PER-SECOND 30
:FULLY-SPECIFIED
:DEGREES
700
root  3.70727 41.0338 -1.45588 -176.701 -84.511 176.416
RightUpLeg  -0.592558 -7.78443 -6.50644
RightLeg  2.19594 -0.807224 2.66968
RightFoot  0.0807275 -0.200079 2.1007
RightToes  -4.65663e-010 0 -3.6325e-017
Spine  -3.15131 0.473523 5.17066
Spine1  6.89129 0.290186 -0.558326
HEad  5.61822 13.0841 -6.37917
LeftShoulder1  2.11154 -3.77935 -22.5998
LeftArm  -22.3863 17.1147 -6.00229
LeftForeArm  38.4697 -61.5423 -17.21
LeftHand  -0.244104 0.0205437 5.32207
RightShoulder  2.26109 4.63951 21.4543
RightArm  -29.5322 4.85463 1.99987
RightForeArm  113.738 76.5054 127.911
RightHand  0.509166 -11.1832 -10.9321
LeftUpLeg  1.8915 6.05673 4.26576
LeftLeg  0.708721 13.5139 -4.28019
LeftFoot  -1.93536 0.100476 -0.815443
LeftToes  4.18335e-011 1.59304e-011 3.38507e-012
701
root  3.78724 41.0254 -1.37236 -177.17 -83.1955 176.587
RightUpLeg  -0.837457 -7.70392 -6.54582
RightLeg  2.4873 0.400328 2.52062
RightFoot  0.318809 -0.195705 2.02836
RightToes  -4.65663e-010 0 -3.6325e-017
Spine  -2.78611 0.647587 6.49946
Spine1  7.04783 0.739408 -1.84758
HEad  5.67272 13.4178 -6.43172
LeftShoulder1  2.52134 -4.60777 -24.808
LeftArm  -23.2865 17.7193 -7.17954
LeftForeArm  45.8212 -68.741 -24.3382
LeftHand  -0.244104 0.0205437 5.32207
RightShoulder  2.39927 5.0609 21.7189
RightArm  -27.0633 10.7542 4.52671
RightForeArm  118.411 76.1123 130.526
RightHand  0.549373 -11.9701 -10.4135
LeftUpLeg  2.20925 6.08736 4.13716
LeftLeg  0.817921 14.8038 -4.30573
LeftFoot  -2.13148 0.105226 -0.8983
LeftToes  4.18335e-011 1.59304e-011 3.38507e-012
702
root  3.86016 41.0156 -1.27828 -177.676 -81.6065 176.894
RightUpLeg  -1.23145 -7.60996 -6.5528
RightLeg  2.76743 1.83876 2.41016
RightFoot  0.59993 -0.18853 1.91304
RightToes  -4.65663e-010 0 -3.6325e-017
Spine  -2.41183 0.801118 8.1414
Spine1  7.08214 1.26957 -3.5773
HEad  5.77518 14.2883 -6.64834
LeftShoulder1  3.0042 -5.44243 -27.4092
LeftArm  -23.7694 18.1515 -8.42961
LeftForeArm  55.8797 -74.2416 -34.6469
LeftHand  -0.244104 0.0205437 5.32207
RightShoulder  2.60943 5.66568 22.1922
RightArm  -22.8589 16.0605 8.31844
RightForeArm  114.803 76.9898 125.883
RightHand  0.517118 -12.8246 -8.82343
LeftUpLeg  2.456 6.10822 3.98865
LeftLeg  0.928381 16.3758 -4.31247
LeftFoot  -2.35695 0.11226 -1.01721
LeftToes  4.18335e-011 1.59304e-011 3.38507e-012
703
root  3.92429 41.0069 -1.19345 -177.929 -79.9829 177.087
RightUpLeg  -1.73959 -7.49887 -6.52074
RightLeg  2.98763 3.28411 2.31863
RightFoot  0.888276 -0.182843 1.82141
RightToes  -4.65663e-010 0 -3.6325e-017
Spine  -2.14575 0.835512 9.77938
Spine1  7.03018 1.71877 -5.46952
HEad  5.95382 15.4877 -6.75539
LeftShoulder1  3.5767 -6.41834 -29.9473
LeftArm  -23.9415 18.6617 -10.0307
LeftForeArm  68.5352 -77.6644 -47.0855
LeftHand  -0.244104 0.0205437 5.32207
RightShoulder  2.94612 6.58755 22.9729
RightArm  -16.9299 19.6103 13.7629
RightForeArm  103.67 78.5139 113.558
RightHand  0.400566 -13.2893 -6.68062
LeftUpLeg  2.57164 6.16688 3.86132
LeftLeg  1.01769 17.9389 -4.37461
LeftFoot  -2.56021 0.11666 -1.09577
LeftToes  4.18335e-011 1.59304e-011 3.38507e-012
704
root  3.97787 40.9997 -1.13292 -178.014 -78.479 177.179
RightUpLeg  -2.22528 -7.38982 -6.46051
RightLeg  3.11519 4.62387 2.24622
RightFoot  1.14691 -0.179213 1.76241
RightToes  -4.65663e-010 0 -3.6325e-017
Spine  -1.97819 0.73879 11.0066
Spine1  6.97641 1.96681 -7.02305
HEad  6.06659 16.7477 -6.78606
LeftShoulder1  4.19647 -7.44749 -32.2493
LeftArm  -23.9977 19.1448 -12.0448
LeftForeArm  79.1643 -79.206 -56.7732
LeftHand  -0.244104 0.0205437 5.32207
RightShoulder  3.41354 7.72451 24.2442
RightArm  -9.73434 20.7288 20.3253
RightForeArm  81.3785 79.5261 89.1777
RightHand  0.270473 -13.0212 -4.9896
LeftUpLeg  2.62841 6.29718 3.80343
LeftLeg  1.08407 19.2956 -4.5187
LeftFoot  -2.72698 0.116765 -1.10815
LeftToes  4.18335e-011 1.59304e-011 3.38507e-012
705
root  4.0192 40.9932 -1.09608 -178.086 -77.1734 177.238
RightUpLeg  -2.56629 -7.31205 -6.40203
RightLeg  3.14456 5.80785 2.21195
RightFoot  1.34831 -0.176663 1.72102
RightToes  -4.65663e-010 0 -3.6325e-017
Spine  -1.81644 0.509471 11.5413
Spine1  6.96391 1.92006 -7.80792
HEad  5.89229 18.2114 -7.10213
LeftShoulder1  4.78188 -8.29318 -34.4598
LeftArm  -24.1356 19.3113 -14.1714
LeftForeArm  82.1176 -79.4719 -58.7609
LeftHand  -0.244104 0.0205437 5.32207
RightShoulder  3.97345 8.81922 26.1713
RightArm  -2.26851 19.6379 26.6471
RightForeArm  50.2617 77.4589 55.6066
RightHand  0.195752 -12.0427 -4.39112
LeftUpLeg  2.72115 6.44704 3.79687
LeftLeg  1.1217 20.4221 -4.67729
LeftFoot  -2.86144 0.114793 -1.08882
LeftToes  4.18335e-011 1.59304e-011 3.38507e-012
706
root  4.05131 40.988 -1.08018 -178.088 -76.1708 177.216
RightUpLeg  -2.77871 -7.26251 -6.36404
RightLeg  3.11473 6.7174 2.20241
RightFoot  1.47145 -0.175751 1.70602
RightToes  -4.65663e-010 0 -3.6325e-017
Spine  -1.57675 0.0850496 11.2306
Spine1  6.86589 1.47465 -7.67187
HEad  5.43159 20.0985 -7.81227
LeftShoulder1  5.22479 -8.7654 -36.471
LeftArm  -24.4509 19.1862 -16.2483
LeftForeArm  77.84 -78.8939 -53.8349
LeftHand  -0.244104 0.0205437 5.32207
RightShoulder  4.55693 9.65151 28.6486
RightArm  4.55077 16.9794 31.7444
RightForeArm  27.8658 70.5138 31.0734
RightHand  0.159357 -10.2683 -4.93265
LeftUpLeg  2.82088 6.53169 3.77827
LeftLeg  1.1171 21.3139 -4.77656
LeftFoot  -2.93969 0.112976 -1.07249
LeftToes  4.18335e-011 1.59304e-011 3.38507e-012
707
root  4.08075 40.984 -1.09294 -177.916 -75.6279 177.068
RightUpLeg  -2.95889 -7.21452 -6.32839
RightLeg  3.1211 7.17415 2.18849
RightFoot  1.48722 -0.175698 1.70546
RightToes  -4.65663e-010 0 -3.6325e-017
Spine  -1.28513 -0.560693 9.9411
Spine1  6.6051 0.580692 -6.53777
HEad  4.94766 22.1456 -8.6223
LeftShoulder1  5.47419 -8.88268 -38.0235
LeftArm  -24.879 18.93 -18.2806
LeftForeArm  70.3829 -77.5658 -45.7884
LeftHand  -0.244104 0.0205437 5.32207
RightShoulder  5.04547 10.0682 31.2323
RightArm  9.92734 13.1187 35.5218
RightForeArm  16.7003 59.3746 17.8288
RightHand  0.0817276 -7.55642 -6.20087
LeftUpLeg  2.80945 6.54794 3.74779
LeftLeg  1.11906 21.8258 -4.80403
LeftFoot  -2.94493 0.112225 -1.07335
LeftToes  4.18335e-011 1.59304e-011 3.38507e-012
708
root  4.10981 40.9818 -1.14047 -177.665 -75.6844 176.893
RightUpLeg  -3.09418 -7.17094 -6.26963
RightLeg  3.18609 7.0535 2.18007
RightFoot  1.40448 -0.173098 1.66662
RightToes  -4.65663e-010 0 -3.6325e-017
Spine  -0.986438 -1.34906 7.63746
Spine1  6.28216 -0.692263 -4.32154
HEad  4.65135 23.829 -9.30003
LeftShoulder1  5.61321 -8.84845 -39.2122
LeftArm  -25.1527 18.4889 -19.9976
LeftForeArm  62.2214 -75.4245 -37.3785
LeftHand  -0.244104 0.0205437 5.32207
RightShoulder  5.33513 10.0213 33.5057
RightArm  12.7678 8.10552 37.9776
RightForeArm  11.2935 45.4751 10.5542
RightHand  -0.0939087 -4.24988 -7.75201
LeftUpLeg  2.6598 6.55614 3.77836
LeftLeg  1.16704 21.7508 -4.78639
LeftFoot  -2.88829 0.113179 -1.10132
LeftToes  4.18335e-011 1.59304e-011 3.38507e-012
709
root  4.13515 40.9825 -1.21203 -177.555 -76.3919 176.872
RightUpLeg  -3.08234 -7.16123 -6.18662
RightLeg  3.22648 6.33066 2.21139
RightFoot  1.26978 -0.167775 1.58745
RightToes  -4.65663e-010 0 -3.6325e-017
Spine  -0.533546 -2.21606 4.54742
Spine1  5.84865 -2.24076 -1.15
HEad  4.49467 24.9925 -9.88257
LeftShoulder1  5.74504 -8.83614 -40.2658
LeftArm  -25.0187 17.8937 -21.0784
LeftForeArm  54.716 -72.6366 -30.367
LeftHand  -0.244104 0.0205437 5.32207
RightShoulder  5.43735 9.64746 35.3791
RightArm  12.2199 1.91607 38.6373
RightForeArm  7.12258 31.2005 6.37238
RightHand  -0.357871 -0.981171 -9.35706
LeftUpLeg  2.40773 6.57165 3.91073
LeftLeg  1.28867 21.0153 -4.70825
LeftFoot  -2.81313 0.116457 -1.16602
LeftToes  4.18335e-011 1.59304e-011 3.38507e-012
